<svg xmlns="http://www.w3.org/2000/svg" width="512" height="512" viewBox="0 0 512 512">
  <defs>
    <linearGradient id="g" x1="0" x2="1" y1="0" y2="1">
      <stop offset="0%" stop-color="#d946ef"/>
      <stop offset="50%" stop-color="#7c3aed"/>
      <stop offset="100%" stop-color="#22d3ee"/>
    </linearGradient>
    <radialGradient id="glow" cx="50%" cy="30%" r="70%">
      <stop offset="0%" stop-color="#ffffff" stop-opacity="0.45"/>
      <stop offset="60%" stop-color="#ffffff" stop-opacity="0.08"/>
      <stop offset="100%" stop-color="#ffffff" stop-opacity="0"/>
    </radialGradient>
    <filter id="soft" x="-50%" y="-50%" width="200%" height="200%">
      <feGaussianBlur in="SourceGraphic" stdDeviation="6"/>
    </filter>
  </defs>

  <rect width="512" height="512" rx="128" fill="#0a0a0a"/>

  <!-- Gradient ring -->
  <rect x="36" y="36" width="440" height="440" rx="112" fill="none" stroke="url(#g)" stroke-width="6"/>

  <!-- Bookmark shape with gradient fill (glass feel) -->
  <g>
    <path d="M176 112h160c22 0 40 18 40 40v236c0 6-7 9-12 6l-58-35a16 16 0 0 0-16 0l-58 35c-5 3-12 0-12-6V152c0-22 18-40 40-40z" fill="url(#g)"/>
    <path d="M176 112h160c22 0 40 18 40 40v0c0 22-18 40-40 40H176c-22 0-40-18-40-40v0c0-22 18-40 40-40z" fill="url(#glow)"/>
  </g>

  <!-- AI monogram -->
  <g filter="url(#soft)">
    <text x="256" y="238" text-anchor="middle" font-family="Poppins, Arial, sans-serif" font-weight="700" font-size="112" fill="#ffffff">AI</text>
  </g>

  <!-- subtle corner glow -->
  <circle cx="420" cy="96" r="44" fill="url(#g)" opacity="0.25"/>
</svg>


